<?xml version="1.0" encoding="UTF-8" standalone="no"?>
<!-- Created with Inkscape (http://www.inkscape.org/) -->

<svg
   xmlns:dc="http://purl.org/dc/elements/1.1/"
   xmlns:cc="http://creativecommons.org/ns#"
   xmlns:rdf="http://www.w3.org/1999/02/22-rdf-syntax-ns#"
   xmlns:svg="http://www.w3.org/2000/svg"
   xmlns="http://www.w3.org/2000/svg"
   xmlns:sodipodi="http://sodipodi.sourceforge.net/DTD/sodipodi-0.dtd"
   xmlns:inkscape="http://www.inkscape.org/namespaces/inkscape"
   id="svg2"
   version="1.1"
   inkscape:version="0.48.5 r10040"
   width="376.82437"
   height="232.98088"
   sodipodi:docname="logo.svg">
  <metadata
     id="metadata8">
    <rdf:RDF>
      <cc:Work
         rdf:about="">
        <dc:format>image/svg+xml</dc:format>
        <dc:type
           rdf:resource="http://purl.org/dc/dcmitype/StillImage" />
        <dc:title></dc:title>
      </cc:Work>
    </rdf:RDF>
  </metadata>
  <defs
     id="defs6" />
  <sodipodi:namedview
     pagecolor="#ffffff"
     bordercolor="#666666"
     borderopacity="1"
     objecttolerance="10"
     gridtolerance="10"
     guidetolerance="10"
     inkscape:pageopacity="0"
     inkscape:pageshadow="2"
     inkscape:window-width="883"
     inkscape:window-height="652"
     id="namedview4"
     showgrid="false"
     inkscape:zoom="1.2379182"
     inkscape:cx="192.68281"
     inkscape:cy="72.930841"
     inkscape:window-x="81"
     inkscape:window-y="30"
     inkscape:window-maximized="0"
     inkscape:current-layer="svg2"
     fit-margin-top="0"
     fit-margin-left="0"
     fit-margin-right="0"
     fit-margin-bottom="0" />
  <g
     id="g3076"
     transform="translate(-70.4429,-149.28529)">
    <path
       style="fill:#ffffff"
       d="m 202.76726,363.16467 c -16.5,-10.49528 -30.38937,-19.44853 -30.86526,-19.89611 -0.63981,-0.60176 52.36867,-36.98958 63.36526,-43.49726 0.825,-0.48823 -1.7625,2.8181 -5.75,7.34739 -4.82208,5.47727 -7.25,9.06256 -7.25,10.70602 l 0,2.47094 92.75,-0.25518 92.75,-0.25518 0,-54 0,-54 -29.44223,-0.5 -29.44224,-0.5 13.19224,-8.37928 c 9.21999,-5.85623 13.19223,-8.94141 13.19223,-10.24621 0,-1.29343 -4.49747,-4.86324 -14.64051,-11.62073 l -14.64051,-9.75378 40.2412,-0.26143 c 25.52971,-0.16586 41.65135,0.11828 44.09846,0.77722 5.43171,1.46261 11.87993,6.70913 14.61519,11.89149 l 2.32617,4.40729 0,80.14637 0,80.14637 -2.54888,5.11494 c -2.39265,4.80142 -6.34515,8.71792 -10.95112,10.85137 -1.16467,0.53946 -45.64594,1.13521 -106.5,1.42638 l -104.5,0.5 -0.33699,2.38309 c -0.25441,1.79911 1.08571,3.8208 5.46869,8.25 3.19313,3.2268 5.59478,5.85829 5.337,5.84776 -0.25779,-0.0105 -13.9687,-8.60619 -30.4687,-19.10147 z m 233.27173,-77.71714 c 0.97476,-0.61866 1.20828,-5.4606 1,-20.73469 l -0.27173,-19.92755 -9.35072,-0.28886 c -6.03498,-0.18643 -9.84689,0.12294 -10.75,0.87245 -1.10579,0.91773 -1.39928,5.00087 -1.39928,19.46743 0,22.20087 -0.39366,21.4556 11.32143,21.43367 4.49821,-0.008 8.75085,-0.37853 9.4503,-0.82245 z M 83.193928,363.30784 c -5.030756,-2.65953 -10.627035,-9.19611 -11.890542,-13.88842 -0.730573,-2.71314 -0.986322,-29.24415 -0.803805,-83.38562 l 0.267687,-79.4064 3.026436,-4.89462 c 1.875278,-3.03287 4.888197,-6.04578 7.921077,-7.92106 l 4.894637,-3.02643 101.828922,-0.27291 101.82892,-0.27292 0,-2.32916 c 0,-1.4485 -2.66659,-5.40994 -7.0525,-10.47709 -3.87888,-4.48136 -6.80072,-8.14792 -6.49298,-8.14792 0.30774,0 15.00691,9.63441 32.66481,21.4098 l 32.10528,21.4098 -16.86231,11.0236 c -9.27426,6.06298 -24.0623,15.72901 -32.8623,21.48006 -8.8,5.75106 -16.15855,10.30998 -16.35233,10.13094 -0.19379,-0.17904 3.06871,-4.49477 7.25,-9.59051 4.57933,-5.58084 7.60233,-10.1793 7.60233,-11.56433 l 0,-2.29936 -91.00861,0 -91.0086,0 0.25861,54.25 0.25861,54.25 29.85144,0.5 29.85145,0.5 -13.35145,9.54029 c -10.36079,7.40331 -13.40394,10.09125 -13.58577,12 -0.19885,2.08741 1.82577,4.01116 13.37608,12.70971 l 13.61039,10.25 -40.87606,-0.0442 c -38.099032,-0.0412 -41.118852,-0.17253 -44.449422,-1.93325 z"
       id="path3078"
       inkscape:connector-curvature="0" />
  </g>
</svg>
